<!DOCTYPE svg PUBLIC "-//W3C//DTD SVG 1.1//EN" "http://www.w3.org/Graphics/SVG/1.1/DTD/svg11.dtd">
<!-- Uploaded to: SVG Repo, www.svgrepo.com, Transformed by: SVG Repo Mixer Tools -->
<svg height="800px" width="800px" version="1.1" id="Layer_1" xmlns="http://www.w3.org/2000/svg" xmlns:xlink="http://www.w3.org/1999/xlink" viewBox="0 0 512 512" xml:space="preserve" fill="#000000">
<g id="SVGRepo_bgCarrier" stroke-width="0"/>
<g id="SVGRepo_tracerCarrier" stroke-linecap="round" stroke-linejoin="round"/>
<g id="SVGRepo_iconCarrier"> <g> <path style="fill:#BDC3C7;" d="M162.133,213.333c-4.71,0-8.533-3.823-8.533-8.533v-34.133c0-4.71,3.823-8.533,8.533-8.533 s8.533,3.823,8.533,8.533V204.8C170.667,209.51,166.844,213.333,162.133,213.333"/> <g> <polygon style="fill:#8697CB;" points="34.132,494.933 85.332,494.933 85.332,375.467 34.132,375.467 "/> <polygon style="fill:#8697CB;" points="426.666,494.933 477.866,494.933 477.866,375.467 426.666,375.467 "/> </g> <polygon style="fill:#556080;" points="8.532,375.467 503.466,375.467 503.466,273.067 8.532,273.067 "/> <path style="fill:#3C4660;" d="M503.467,503.467H8.533c-4.71,0-8.533-3.823-8.533-8.533s3.823-8.533,8.533-8.533h494.933 c4.71,0,8.533,3.823,8.533,8.533S508.177,503.467,503.467,503.467"/> <polygon style="fill:#8697CB;" points="332.799,273.067 503.466,273.067 503.466,8.533 332.799,8.533 "/> <g> <polygon style="fill:#556080;" points="366.932,110.933 469.333,110.933 469.333,42.667 366.932,42.667 "/> <path style="fill:#556080;" d="M366.933,179.2c-4.71,0-8.533-3.823-8.533-8.533v-25.6c0-4.71,3.823-8.533,8.533-8.533 c4.71,0,8.533,3.823,8.533,8.533v25.6C375.467,175.377,371.644,179.2,366.933,179.2"/> <path style="fill:#556080;" d="M469.333,179.2c-4.71,0-8.533-3.823-8.533-8.533v-25.6c0-4.71,3.823-8.533,8.533-8.533 c4.71,0,8.533,3.823,8.533,8.533v25.6C477.867,175.377,474.044,179.2,469.333,179.2"/> <path style="fill:#556080;" d="M435.2,179.2c-4.71,0-8.533-3.823-8.533-8.533v-25.6c0-4.71,3.823-8.533,8.533-8.533 c4.71,0,8.533,3.823,8.533,8.533v25.6C443.733,175.377,439.91,179.2,435.2,179.2"/> <path style="fill:#556080;" d="M401.067,179.2c-4.71,0-8.533-3.823-8.533-8.533v-25.6c0-4.71,3.823-8.533,8.533-8.533 c4.71,0,8.533,3.823,8.533,8.533v25.6C409.6,175.377,405.777,179.2,401.067,179.2"/> <polygon style="fill:#556080;" points="366.932,238.933 401.066,238.933 401.066,204.8 366.932,204.8 "/> <polygon style="fill:#556080;" points="435.199,238.933 469.333,238.933 469.333,204.8 435.199,204.8 "/> </g> <g> <path style="fill:#8697CB;" d="M102.4,324.267c0,9.429-7.637,17.067-17.067,17.067s-17.067-7.637-17.067-17.067 c0-9.429,7.637-17.067,17.067-17.067S102.4,314.837,102.4,324.267"/> <path style="fill:#8697CB;" d="M170.667,324.267c0,9.429-7.637,17.067-17.067,17.067s-17.067-7.637-17.067-17.067 c0-9.429,7.637-17.067,17.067-17.067S170.667,314.837,170.667,324.267"/> <path style="fill:#8697CB;" d="M238.933,324.267c0,9.429-7.637,17.067-17.067,17.067c-9.429,0-17.067-7.637-17.067-17.067 c0-9.429,7.637-17.067,17.067-17.067C231.296,307.2,238.933,314.837,238.933,324.267"/> <path style="fill:#8697CB;" d="M307.2,324.267c0,9.429-7.637,17.067-17.067,17.067c-9.429,0-17.067-7.637-17.067-17.067 c0-9.429,7.637-17.067,17.067-17.067C299.563,307.2,307.2,314.837,307.2,324.267"/> <path style="fill:#8697CB;" d="M375.467,324.267c0,9.429-7.637,17.067-17.067,17.067c-9.429,0-17.067-7.637-17.067-17.067 c0-9.429,7.637-17.067,17.067-17.067C367.829,307.2,375.467,314.837,375.467,324.267"/> <path style="fill:#8697CB;" d="M443.733,324.267c0,9.429-7.637,17.067-17.067,17.067s-17.067-7.637-17.067-17.067 c0-9.429,7.637-17.067,17.067-17.067S443.733,314.837,443.733,324.267"/> </g> <g> <polygon style="fill:#ECF0F1;" points="59.732,170.667 264.533,170.667 264.533,68.267 59.732,68.267 "/> <polygon style="fill:#ECF0F1;" points="102.399,238.933 221.866,238.933 221.866,204.8 102.399,204.8 "/> </g> <polygon style="fill:#BDC3C7;" points="76.799,273.067 247.466,273.067 247.466,238.933 76.799,238.933 "/> </g> </g>
</svg>