<?xml version="1.0" encoding="iso-8859-1"?>
<!-- Uploaded to: SVG Repo, www.svgrepo.com, Generator: SVG Repo Mixer Tools -->
<svg version="1.1" id="Layer_1" xmlns="http://www.w3.org/2000/svg" xmlns:xlink="http://www.w3.org/1999/xlink" 
	 viewBox="0 0 512 512" xml:space="preserve">
<polygon style="fill:#9BAAAB;" points="12.395,503.916 499.603,503.916 12.395,16.707 "/>
<polygon style="fill:#FFFFFF;" points="77.068,439.242 77.068,172.843 344.386,439.242 "/>
<polygon style="fill:#687F82;" points="210.497,305.814 344.386,439.242 77.068,439.242 12.395,503.916 499.603,503.916 
	255.999,260.312 "/>
<g>
	<polygon style="fill:#FFFFFF;" points="344.386,439.242 210.497,305.814 77.068,439.242 	"/>
	<polygon style="fill:#FFFFFF;" points="77.068,439.242 210.497,305.814 77.068,172.843 	"/>
</g>
<g>
	<path style="fill:#365558;" d="M77.068,512c-4.465,0-8.084-3.618-8.084-8.084v-34.493c0-4.466,3.62-8.084,8.084-8.084
		s8.084,3.618,8.084,8.084v34.493C85.153,508.382,81.533,512,77.068,512z"/>
	<path style="fill:#365558;" d="M141.742,512c-4.465,0-8.084-3.618-8.084-8.084v-34.493c0-4.466,3.62-8.084,8.084-8.084
		c4.465,0,8.084,3.618,8.084,8.084v34.493C149.826,508.382,146.207,512,141.742,512z"/>
	<path style="fill:#365558;" d="M206.416,512c-4.465,0-8.084-3.618-8.084-8.084v-34.493c0-4.466,3.62-8.084,8.084-8.084
		c4.465,0,8.084,3.618,8.084,8.084v34.493C214.5,508.382,210.88,512,206.416,512z"/>
	<path style="fill:#365558;" d="M271.089,512c-4.465,0-8.084-3.618-8.084-8.084v-34.493c0-4.466,3.62-8.084,8.084-8.084
		s8.084,3.618,8.084,8.084v34.493C279.174,508.382,275.554,512,271.089,512z"/>
	<path style="fill:#365558;" d="M335.763,512c-4.465,0-8.084-3.618-8.084-8.084v-34.493c0-4.466,3.62-8.084,8.084-8.084
		s8.084,3.618,8.084,8.084v34.493C343.847,508.382,340.228,512,335.763,512z"/>
	<path style="fill:#365558;" d="M400.437,512c-4.465,0-8.084-3.618-8.084-8.084v-34.493c0-4.466,3.62-8.084,8.084-8.084
		s8.084,3.618,8.084,8.084v34.493C408.521,508.382,404.901,512,400.437,512z"/>
</g>
<g>
	<path style="fill:#FFFFFF;" d="M176.235,231.747c-2.068,0-4.138-0.789-5.716-2.367L49.794,108.656
		c-3.157-3.158-3.157-8.276,0-11.433c3.157-3.156,8.276-3.156,11.432,0l120.724,120.724c3.157,3.158,3.157,8.276,0,11.433
		C180.373,230.958,178.303,231.747,176.235,231.747z"/>
	<path style="fill:#FFFFFF;" d="M219.35,279.175c-2.068,0-4.138-0.789-5.716-2.367l-21.558-21.558
		c-3.157-3.158-3.157-8.276,0-11.433c3.157-3.156,8.276-3.156,11.432,0l21.558,21.558c3.157,3.158,3.157,8.276,0,11.433
		C223.489,278.386,221.419,279.175,219.35,279.175z"/>
</g>
<polygon style="fill:#FF8C29;" points="438.628,220.335 252.031,33.737 145.325,12.396 166.666,119.102 353.263,305.7 
	414.238,366.674 499.603,281.309 "/>
<rect x="366.075" y="250.392" transform="matrix(0.7071 -0.7071 0.7071 0.7071 -82.6405 387.5024)" style="fill:#CDD4D5;" width="120.723" height="86.231"/>
<polygon style="fill:#FFD1A9;" points="145.325,12.396 252.031,33.737 166.666,119.102 "/>
<polygon style="fill:#365558;" points="145.325,12.396 191.056,21.542 154.471,58.127 "/>
<rect x="281.09" y="37.778" transform="matrix(0.7071 -0.7071 0.7071 0.7071 -31.3679 263.7145)" style="fill:#4ACFD9;" width="43.115" height="263.888"/>
<rect x="251.049" y="58.937" transform="matrix(-0.7071 0.7071 -0.7071 -0.7071 615.5036 126.8122)" style="fill:#F0353D;" width="60.879" height="263.888"/>
<rect x="374.825" y="271.548" transform="matrix(-0.7071 0.7071 -0.7071 -0.7071 914.3309 250.5986)" style="fill:#9BAAAB;" width="60.879" height="86.231"/>
<rect x="284.172" y="45.215" transform="matrix(-0.7071 0.7071 -0.7071 -0.7071 629.2224 93.6851)" style="fill:#0295AA;" width="22.073" height="263.888"/>
<path style="fill:#FFFFFF;" d="M456.487,292.109c-2.068,0-4.138-0.789-5.716-2.367l-21.558-21.558
	c-3.157-3.158-3.157-8.276,0-11.433c3.157-3.156,8.276-3.156,11.432,0l21.558,21.558c3.157,3.158,3.157,8.276,0,11.433
	C460.625,291.32,458.556,292.109,456.487,292.109z"/>
<path style="fill:#4ACFD9;" d="M499.603,105.861l-57.926,57.926l-91.463-91.463c-8.418-8.419-8.418-22.069,0-30.487l27.439-27.439
	c8.418-8.418,22.069-8.418,30.487,0L499.603,105.861z"/>
<rect x="399.196" y="61.214" transform="matrix(-0.7071 0.7071 -0.7071 -0.7071 825.1652 -133.1354)" style="fill:#FFD1A9;" width="81.919" height="86.231"/>
<path style="fill:#FFFFFF;" d="M463.018,113.945c-2.068,0-4.138-0.789-5.716-2.367l-24.39-24.391c-3.157-3.158-3.157-8.276,0-11.433
	c3.157-3.156,8.276-3.156,11.432,0l24.39,24.391c3.157,3.158,3.157,8.276,0,11.433C467.156,113.156,465.087,113.945,463.018,113.945
	z"/>
<path style="fill:#0295AA;" d="M364.715,27.335l-14.501,14.501c-8.418,8.418-8.418,22.069,0,30.487l91.463,91.463l29.745-29.746
	L364.715,27.335z"/>
<rect x="405.021" y="75.312" transform="matrix(-0.7071 0.7071 -0.7071 -0.7071 811.0631 -99.098)" style="fill:#FF8C29;" width="42.07" height="86.231"/>
<path d="M18.111,10.99c-2.311-2.311-5.789-3.003-8.81-1.752c-3.021,1.25-4.991,4.199-4.991,7.469v487.208
	c0,4.466,3.62,8.084,8.084,8.084h64.674h64.674h64.674h64.674h64.674h64.674h99.166c3.27,0,6.217-1.969,7.469-4.991
	c1.251-3.021,0.559-6.498-1.753-8.811L18.111,10.99z M400.437,495.832h-64.674h-64.674h-64.674h-64.674H77.068H20.479V36.224
	l459.608,459.608H400.437z"/>
<path d="M77.068,447.326h267.318c3.272,0,6.222-1.973,7.472-4.997c1.249-3.025,0.553-6.504-1.766-8.814L82.775,167.116
	c-2.313-2.307-5.789-2.993-8.806-1.74c-3.017,1.253-4.984,4.199-4.984,7.467v266.4C68.984,443.708,72.604,447.326,77.068,447.326z
	 M85.153,192.313l239.669,238.845H85.153V192.313z"/>
<path d="M444.345,214.617L257.784,28.057c-0.004-0.004-0.01-0.009-0.014-0.014l-0.023-0.023c-0.038-0.038-0.079-0.068-0.116-0.105
	c-0.153-0.147-0.308-0.292-0.472-0.427c-0.072-0.06-0.15-0.112-0.224-0.169c-0.136-0.103-0.271-0.208-0.414-0.304
	c-0.1-0.067-0.205-0.125-0.307-0.188c-0.122-0.074-0.243-0.151-0.37-0.219c-0.126-0.068-0.255-0.125-0.384-0.184
	c-0.11-0.052-0.217-0.107-0.33-0.153c-0.156-0.065-0.316-0.119-0.475-0.172c-0.092-0.031-0.18-0.067-0.273-0.096
	c-0.196-0.059-0.396-0.107-0.596-0.151c-0.058-0.013-0.113-0.031-0.172-0.043l-0.036-0.008c-0.003-0.001-0.006-0.001-0.01-0.002
	L147.013,4.489c-0.298-0.064-0.6-0.111-0.907-0.14c-0.043-0.004-0.085-0.004-0.127-0.008c-0.069-0.005-0.139-0.006-0.208-0.011
	c-0.148-0.008-0.294-0.019-0.443-0.019c-0.099,0-0.197,0.008-0.296,0.011c-0.08,0.003-0.16,0.008-0.239,0.013
	c-0.042,0.003-0.084,0.003-0.125,0.006c-0.039,0.003-0.078,0.002-0.117,0.006c-0.166,0.016-0.329,0.043-0.493,0.069
	c-0.059,0.01-0.12,0.017-0.179,0.028c-0.617,0.112-1.214,0.293-1.78,0.54c-0.047,0.02-0.094,0.045-0.141,0.067
	c-0.163,0.074-0.326,0.149-0.483,0.234c-0.067,0.037-0.129,0.079-0.195,0.116c-0.068,0.039-0.135,0.081-0.202,0.122
	c-0.089,0.055-0.182,0.107-0.269,0.166c-0.095,0.064-0.183,0.135-0.275,0.203c-0.019,0.014-0.038,0.028-0.056,0.042
	c-0.053,0.04-0.108,0.077-0.16,0.117c-0.046,0.037-0.094,0.071-0.138,0.108c-0.075,0.061-0.143,0.129-0.217,0.194
	c-0.124,0.11-0.25,0.22-0.368,0.337c-0.049,0.049-0.092,0.101-0.138,0.151c-0.134,0.141-0.266,0.283-0.39,0.435
	c-0.025,0.03-0.045,0.063-0.07,0.093c-0.001,0.001-0.001,0.002-0.002,0.003c-0.043,0.055-0.084,0.111-0.126,0.167
	c-0.092,0.121-0.183,0.24-0.268,0.368c-0.01,0.014-0.017,0.03-0.027,0.044c-0.041,0.063-0.078,0.129-0.117,0.193
	c-0.04,0.065-0.08,0.128-0.117,0.193c-0.045,0.079-0.094,0.155-0.137,0.235c-0.013,0.024-0.023,0.049-0.035,0.072
	c-0.064,0.122-0.123,0.248-0.18,0.374c-0.023,0.049-0.049,0.096-0.07,0.144c-0.015,0.036-0.033,0.07-0.049,0.107
	c-0.107,0.253-0.198,0.512-0.279,0.776c-0.003,0.012-0.005,0.025-0.01,0.037c-0.083,0.277-0.149,0.562-0.202,0.848
	c-0.014,0.074-0.023,0.151-0.034,0.226c-0.023,0.15-0.05,0.297-0.064,0.449c-0.008,0.082-0.008,0.162-0.013,0.244
	c-0.006,0.088-0.011,0.176-0.014,0.264c-0.003,0.094-0.011,0.186-0.011,0.281c0,0.144,0.012,0.287,0.019,0.43
	c0.004,0.077,0.005,0.152,0.012,0.229c0.003,0.043,0.004,0.086,0.008,0.129c0.029,0.294,0.072,0.584,0.133,0.871l9.132,45.659
	c0,0.001,0,0.001,0,0.001l12.183,60.919c0.002,0.01,0.004,0.019,0.005,0.029l0.005,0.025c0.03,0.153,0.072,0.301,0.111,0.451
	c0.044,0.17,0.094,0.338,0.149,0.506c0.051,0.154,0.1,0.309,0.161,0.458c0.036,0.088,0.078,0.174,0.116,0.261
	c0.064,0.144,0.127,0.288,0.198,0.427c0.043,0.085,0.093,0.167,0.139,0.251c0.078,0.14,0.157,0.278,0.244,0.412
	c0.05,0.078,0.102,0.154,0.155,0.231c0.095,0.138,0.194,0.273,0.298,0.404c0.054,0.069,0.108,0.137,0.164,0.204
	c0.117,0.14,0.24,0.275,0.368,0.406c0.039,0.04,0.071,0.083,0.11,0.122l186.596,186.596l60.975,60.974
	c1.578,1.578,3.648,2.367,5.716,2.367s4.138-0.789,5.716-2.367l85.365-85.364c1.517-1.517,2.368-3.573,2.368-5.717
	c0-2.144-0.852-4.199-2.368-5.717L444.345,214.617z M353.263,294.265L178.099,119.102l16.006-16.006L369.269,278.26L353.263,294.265
	z M235.633,38.702l-32.001,32.001c-0.003,0.003-0.006,0.008-0.01,0.011L188.4,85.936c-0.003,0.003-0.008,0.006-0.011,0.01
	l-16.757,16.758l-8.384-41.919l30.467-30.467L235.633,38.702z M380.702,266.826L205.537,91.662l9.517-9.517
	c0.003-0.003,0.008-0.006,0.011-0.01l9.528-9.528l175.164,175.164L380.702,266.826z M174.659,26.508L159.437,41.73l-3.806-19.028
	l5.319,1.064L174.659,26.508z M411.19,236.34L236.025,61.176l16.006-16.006l175.164,175.164L411.19,236.34z M414.238,355.241
	l-49.542-49.542l21.722-21.722l52.21-52.209l49.542,49.542L414.238,355.241z"/>
<path d="M374.986,108.529l60.974,60.975c1.516,1.516,3.572,2.367,5.716,2.367c2.144,0,4.201-0.852,5.716-2.367l57.926-57.926
	c3.157-3.158,3.157-8.276,0-11.433l-60.974-60.974L413.857,8.682C408.258,3.083,400.815,0,392.897,0
	c-7.917,0-15.361,3.083-20.96,8.681L344.498,36.12c-11.557,11.558-11.557,30.363,0,41.921L374.986,108.529z M441.677,152.355
	l-49.541-49.543l46.493-46.493l49.542,49.541L441.677,152.355z M355.93,47.553l27.439-27.439c2.545-2.545,5.928-3.946,9.527-3.946
	c3.599,0,6.983,1.401,9.527,3.946l24.771,24.771l-46.493,46.492l-24.772-24.77C350.678,61.355,350.678,52.806,355.93,47.553z"/>
</svg>