<!DOCTYPE svg PUBLIC "-//W3C//DTD SVG 1.1//EN" "http://www.w3.org/Graphics/SVG/1.1/DTD/svg11.dtd">
<!-- Uploaded to: SVG Repo, www.svgrepo.com, Transformed by: SVG Repo Mixer Tools -->
<svg width="800px" height="800px" viewBox="-39.38 -39.38 472.52 472.52" xmlns="http://www.w3.org/2000/svg" fill="#000000">
<g id="SVGRepo_bgCarrier" stroke-width="0"/>
<g id="SVGRepo_tracerCarrier" stroke-linecap="round" stroke-linejoin="round"/>
<g id="SVGRepo_iconCarrier">
<defs>
<style>.a{fill:#daa172;}.b{fill:#1e1b1a;}.c{fill:#000000;}.d{fill:#0995ec;}.e{fill:#d617fd;}</style>
</defs>
<path class="a" d="M236.54,132.586a10.018,10.018,0,0,0-.335,4.768,17.346,17.346,0,0,0,.39,2.385c1.611,4.756,2.9,8.585,4.34,10.948,0,0-3.459,2.134-15.459,5.912s-16.077-1.882-16.077-1.882-2.533-4.346-3.407-5.777c-.834-1.365-1.608-2.333-1.78-2.589a1.7,1.7,0,0,0-2.172-.574c-3.177,1.609-8.476,2.189-12.563,1.59a9.791,9.791,0,0,1-6.284-3.769c-2.405-2.9-4.45-8.838-5.158-11.522a7.819,7.819,0,0,0-2.419-2.894c-1.634-1.161-4.015-1.835-3.435-4.562a4.762,4.762,0,0,1,1.683-2.58c4.074-3.437,2.82-10.439,1.926-15.486a38.014,38.014,0,0,1-1.225-8.219s-2.2-14.773,18.541-10.921,38.518,22.815,42.074,31.111S236.54,132.586,236.54,132.586Z"/>
<path class="b" d="M247.381,102.393a30.154,30.154,0,0,0-.418-7.362c-1.011-4.862-2-8.577-5.222-13.278a28.962,28.962,0,0,0-7.944-8.364l-6.623-4.476c-4.7-4.112-13.574-6.592-22.647-5.37-10.124,1.363-32.755,8.015-31.316,35.011l4.976-2.964,7.945.5a28.48,28.48,0,0,1,15.644,5.18c4.1,2.67,6.449,9.164,9.573,8.991a8.2,8.2,0,0,1,3-4.269,4.542,4.542,0,0,1,4-.586c1.983.74,2.958,2.992,3.265,5.086a15.022,15.022,0,0,1-1.706,9.232c4.057,4.228,9.875,10.1,16.566,13.1.812-3.01,2.652-5.968,3.991-8.567,1.051-2.121,2.975-5.825,3.866-8.121A46.141,46.141,0,0,0,247.381,102.393Z"/>
<path class="c" d="M219.468,122.724c4.4,4.5,9.183,8.9,14.862,11.737a2.4,2.4,0,0,0,2.423-4.145,35.485,35.485,0,0,1-4.047-2.374q-.976-.66-1.916-1.373c-.044-.033-.453-.351-.2-.153l-.387-.306q-.48-.384-.952-.778a86.654,86.654,0,0,1-6.388-6,2.4,2.4,0,0,0-3.394,3.394Z"/>
<path class="c" d="M186.132,98.493a26.62,26.62,0,0,1,14.564,4.941c3.539,2.486,4.917,7.467,9.16,9.028a2.421,2.421,0,0,0,2.952-1.676,2.451,2.451,0,0,0-1.676-2.953c.467.172-.112-.075-.194-.132-.325-.229.022.04-.173-.13a10.926,10.926,0,0,1-1.029-1.057c-.692-.8-1.311-1.651-1.955-2.486a21.144,21.144,0,0,0-5.54-5.3,31.739,31.739,0,0,0-16.109-5.031c-3.09-.084-3.088,4.716,0,4.8Z"/>
<path class="c" d="M174.8,100.4l5.741-3.422a2.491,2.491,0,0,0,1.1-1.434,2.4,2.4,0,0,0-3.526-2.71l-5.741,3.421a2.5,2.5,0,0,0-1.1,1.435,2.4,2.4,0,0,0,3.526,2.71Z"/>
<path class="c" d="M232.586,75.461a29.028,29.028,0,0,1,9.93,12.6,33.1,33.1,0,0,1,2.348,15.866,44.763,44.763,0,0,1-4.643,15.471c-1.083,2.2-2.213,4.368-3.365,6.531a24.348,24.348,0,0,0-3.133,8.642c-.371,3.342.8,6.605,1.89,9.7a41.473,41.473,0,0,0,3.25,7.626c1.583,2.649,5.735.238,4.145-2.422a35.056,35.056,0,0,1-2.766-6.48c-.913-2.6-2.086-5.367-1.748-8.188.34-2.838,1.969-5.461,3.3-7.924,1.2-2.218,2.32-4.486,3.4-6.764,4.911-10.392,6.332-22.5,1.955-33.336a34.2,34.2,0,0,0-12.135-15.468c-2.58-1.715-4.986,2.441-2.423,4.145Z"/>
<path class="c" d="M228.871,67.216c-8.97-7.684-22.407-7.58-33.14-4.144-8.694,2.784-16.763,8.145-21.118,16.374a37.187,37.187,0,0,0-3.749,19.964,2.457,2.457,0,0,0,2.4,2.4,2.421,2.421,0,0,0,2.4-2.4c-.36-5.375.167-11.186,2.317-15.953a26.025,26.025,0,0,1,7.85-10.011c.283-.226.421-.33.936-.7q.621-.442,1.261-.855,1.257-.81,2.579-1.514,1.281-.684,2.612-1.27c.12-.053.745-.317.33-.145q.3-.124.6-.244.692-.273,1.391-.524a46.173,46.173,0,0,1,9.194-2.281c6.685-.927,15.3.035,20.742,4.693a2.463,2.463,0,0,0,3.4,0,2.421,2.421,0,0,0,0-3.394Z"/>
<path class="c" d="M213.829,110.44a5.826,5.826,0,0,1,1.731-2.373,3.486,3.486,0,0,1,1.034-.476c.031,0,.644-.017.547-.03.1.013.744.274.475.136a2.824,2.824,0,0,1,1.192,1.478,7.912,7.912,0,0,1,.546,2.885,12.85,12.85,0,0,1-5.059,10.614,2.469,2.469,0,0,0-.861,3.284,2.418,2.418,0,0,0,3.284.861A17.671,17.671,0,0,0,223.95,110c-.45-3.1-2.262-6.331-5.533-7.066-3.808-.856-7.18,1.8-8.732,5.085a2.466,2.466,0,0,0,.861,3.283,2.42,2.42,0,0,0,3.283-.861Z"/>
<path class="c" d="M172.165,98.335c.137,3.573,1,6.955,1.59,10.457a23.194,23.194,0,0,1,.379,7.814,6.821,6.821,0,0,1-1.073,2.827,17.206,17.206,0,0,1-1.466,1.455,7.03,7.03,0,0,0-1.626,2.715,5.47,5.47,0,0,0,.5,4.511A9.253,9.253,0,0,0,173.7,130.8a5.262,5.262,0,0,1,2.074,2.127c.5,1.145.744,2.463,1.177,3.643a30.563,30.563,0,0,0,3.982,8.01,12.6,12.6,0,0,0,7.9,5.1,27.364,27.364,0,0,0,10.2-.356,18.508,18.508,0,0,0,2.108-.591c.321-.112.633-.24.947-.37q.44-.177.87-.375c.056-.124-.067-.131-.371-.022-.317-.222-.321-.372-.284-.168.049.265.518.706.671.925.437.623.842,1.266,1.234,1.918,1.054,1.752,2.082,3.52,3.111,5.287,1.555,2.667,5.705.254,4.145-2.423q-1.365-2.34-2.744-4.672c-1.207-2.03-2.635-5.037-5.153-5.547-1.522-.308-2.661.483-4.035.931a19.907,19.907,0,0,1-4.631.9c-2.661.2-5.719.292-8.01-1.288s-3.584-4.268-4.637-6.783c-.494-1.178-.923-2.387-1.316-3.6a13.532,13.532,0,0,0-1.413-3.56,10.826,10.826,0,0,0-3.407-3.23,12.223,12.223,0,0,1-1.425-.9c.034.029-.226-.421-.2-.127-.107-1.262,1.244-1.955,1.956-2.8a10.64,10.64,0,0,0,2.042-3.839c2.037-6.822-1.271-13.845-1.533-20.653-.119-3.079-4.92-3.094-4.8,0Z"/>
<path class="d" d="M329.213,360.8q0-18.978-.066-37.954-.065-21.526-.159-43.054-.093-22.41-.193-44.821-.092-21.624-.166-43.25-.063-19.172-.082-38.344,0-2.141,0-4.282l-2.4,2.4c17.656.024,35.312-.193,52.966-.289q6.165-.033,12.33-.044c3.088,0,3.094-4.8,0-4.8-17.727,0-35.454.212-53.18.3-4.038.02-8.077.038-12.116.033a2.435,2.435,0,0,0-2.4,2.4q0,18.748.067,37.5.066,21.409.16,42.819.095,22.4.193,44.806.091,21.729.166,43.458.063,19.386.081,38.773,0,2.177,0,4.352c0,3.088,4.8,3.093,4.8,0Z"/>
<path class="d" d="M340.176,360.8q0-38.77-.226-77.539-.183-41.011-.358-82.024-.07-20.526-.084-41.053l-2.4,2.4c14.989-.079,29.977-.21,44.965-.282q4.683-.022,9.366-.028c3.089,0,3.094-4.8,0-4.8-14.027,0-28.055.144-42.083.236q-6.123.04-12.248.074a2.436,2.436,0,0,0-2.4,2.4q0,38.45.229,76.9.186,41.1.358,82.205.07,20.757.081,41.514c0,3.088,4.8,3.093,4.8,0Z"/>
<path class="d" d="M337.759,344.643c13.983-.107,27.966-.279,41.949-.372q4.515-.03,9.031-.038c3.089,0,3.094-4.8,0-4.8-13.192,0-26.384.187-39.575.311q-5.7.054-11.4.1c-3.087.024-3.094,4.824,0,4.8Z"/>
<path class="d" d="M337.389,246.573c14.892-.07,29.783-.2,44.674-.271q4.689-.022,9.376-.029c3.089,0,3.094-4.8,0-4.8-13.914,0-27.828.143-41.742.231q-6.154.039-12.308.069c-3.088.015-3.094,4.815,0,4.8Z"/>
<path class="d" d="M351.066,233.947c-.01-13.334.127-26.667.118-40l-2.4,2.4c7.294,0,14.587-.055,21.881-.056,3.089,0,3.094-4.8,0-4.8-7.294,0-14.587.054-21.881.056a2.434,2.434,0,0,0-2.4,2.4c.009,13.333-.128,26.666-.118,40,0,3.088,4.8,3.093,4.8,0Z"/>
<path class="d" d="M356.381,333.652c3.79-11.734,7.7-23.428,11.494-35.163.951-2.946-3.682-4.208-4.629-1.276-3.79,11.735-7.7,23.429-11.494,35.163-.952,2.947,3.681,4.209,4.629,1.276Z"/>
<path class="d" d="M358.573,200.65c0,11.408-.155,22.815-.157,34.223,0,3.088,4.8,3.093,4.8,0,0-11.408.155-22.815.157-34.223,0-3.088-4.8-3.093-4.8,0Z"/>
<path class="d" d="M378.51,333.169c-.009-13.334.128-26.667.118-40,0-3.089-4.8-3.094-4.8,0,.01,13.333-.127,26.666-.118,40,0,3.088,4.8,3.094,4.8,0Z"/>
<path class="d" d="M375.436,234.132c0-15.334-.22-30.667-.223-46l-2.4,2.4h18.593c3.088,0,3.094-4.8,0-4.8H372.813a2.435,2.435,0,0,0-2.4,2.4c0,15.333.22,30.666.223,46,0,3.088,4.8,3.094,4.8,0Z"/>
<path class="e" d="M250.163,282.727c-.415-20.121,3.633-37.772,5.363-57.454,1.157-13.156.889-26.222-1.394-44.231-1.761-13.884-4.708-20.823-12.273-31.991a6.465,6.465,0,0,0-6.11-2.179c-6.828,1.837-23.883,7.712-22.356,7.272-1.762.689-4.744,2.087-6.122,2.776-.593,4.593-.148,8.593-2.519,18.074-2.37,12.3-3.357,22.288-5.037,33.63-2.37,16-.7,31.168-8,48.593-3.37,8.042-5.481,19.726-2.867,21.166a35.412,35.412,0,0,0,7.614,5.206,171.008,171.008,0,0,0,48.957,18.665Z"/>
<path class="a" d="M203.805,287.51q-3.725-1.882-7.343-3.921c-1.253-.7-2.512-1.415-3.724-2.19-27.15,6.2-51.386,12.171-83.245,18.929-7.333,1.555-12.117,8.811-14.074,13.7a197.99,197.99,0,0,0-8.889,29.26h52.5c0-2.212,0-4.344,0-4.344,27.452-.471,40.832-.471,70.61-.693,9.072-.068,18.544.667,26.889-2.889s14.927-13.98,13.494-22.937l-2.4-5.309-2.2-4.865A167.777,167.777,0,0,1,203.805,287.51Z"/>
<path class="d" d="M82.881,248.689c6.032,0,52.149.065,55.24.065,0-1.642-.04-2.931-.04-4.5a1.959,1.959,0,0,0-.432-1.262,2.17,2.17,0,0,0-1.285-.636c-13.056-1.988-41.612-4.433-53.612-5.062C82.752,238.043,82.872,248.025,82.881,248.689Z"/>
<path class="c" d="M183.225,281.124c-16.935,3.918-33.848,7.937-50.809,11.743q-6.885,1.545-13.779,3.045-3.675.8-7.353,1.584a27.213,27.213,0,0,0-6.192,1.848c-6.557,3.117-10.328,9.682-12.821,16.177a213.149,213.149,0,0,0-8.055,27.132c-.715,3,3.912,4.284,4.628,1.276a223.964,223.964,0,0,1,6.87-23.941c2.128-5.922,4.594-12.247,10.416-15.755a15.529,15.529,0,0,1,4.976-1.8q3.587-.764,7.169-1.539,6.723-1.455,13.435-2.956,12.713-2.841,25.4-5.806,13.7-3.184,27.392-6.381c3.009-.7,1.735-5.325-1.276-4.629Z"/>
<path class="c" d="M247.71,313.066c.994,6.686-3.1,13.775-8.22,17.782-6.677,5.223-16.2,5.062-24.235,5.021-18.451-.093-36.913.152-55.364.3q-15.184.126-30.368.375c-3.085.053-3.095,4.853,0,4.8,18.692-.319,37.385-.436,56.078-.542,9.96-.056,19.92-.18,29.88-.135,8.867.041,18.972-.105,26.4-5.649,7.113-5.312,11.793-14.268,10.46-23.231a2.416,2.416,0,0,0-2.952-1.677,2.461,2.461,0,0,0-1.676,2.953Z"/>
<path class="c" d="M82.881,251.089q10.2,0,20.41.023l27.416.034q3.707,0,7.414.008a2.435,2.435,0,0,0,2.4-2.4c-.006-2.651.655-6.407-1.936-8.084-1.569-1.014-4.028-.989-5.835-1.228-3.913-.518-7.837-.959-11.762-1.372q-13.3-1.4-26.632-2.4c-3.865-.3-7.733-.573-11.6-.777a2.427,2.427,0,0,0-2.4,2.4c.009,3.8.078,7.6.129,11.4.042,3.086,4.842,3.095,4.8,0-.051-3.8-.12-7.6-.129-11.4l-2.4,2.4c15.353.812,30.728,2.214,45.991,4.047,1.852.222,3.6.443,5.189.667q.607.085,1.214.176a4.346,4.346,0,0,0,.465.069,3.427,3.427,0,0,1,.459.094.571.571,0,0,1-.348-.385c-.167-.039-.04.3-.039.581,0,.44.009.88.015,1.319.011.832.021,1.663.023,2.5l2.4-2.4q-9.156,0-18.311-.021l-28-.035-8.929-.009C79.792,246.288,79.787,251.088,82.881,251.089Z"/>
<path class="d" d="M59.078,217.692c-2.98-37.2-8.386-85.488-12.013-121.364-3.119.223-7.549,1.032-11.052,1.412,3.659,36.059,9.4,84.322,12.33,121.352C51.448,218.835,58.923,217.708,59.078,217.692Z"/>
<path class="c" d="M61.478,217.692c-1.265-15.763-2.774-31.507-4.349-47.242-1.636-16.336-3.359-32.663-5.067-48.991q-1.314-12.564-2.6-25.131a2.435,2.435,0,0,0-2.4-2.4c-3.7.285-7.361,1-11.052,1.412-1.185.133-2.543,1-2.4,2.4,1.572,15.481,3.276,30.949,4.947,46.419,1.772,16.4,3.526,32.8,5.1,49.213.824,8.567,1.6,17.14,2.279,25.72a2.43,2.43,0,0,0,2.4,2.4c2.279-.2,4.548-.522,6.813-.835q1.47-.2,2.939-.416c.361-.052.722-.1,1.083-.157.279-.042,1.075-.141-.1.008a2.477,2.477,0,0,0,2.4-2.4,2.414,2.414,0,0,0-2.4-2.4c-3.62.459-7.109,1.088-10.735,1.4l2.4,2.4c-1.245-15.724-2.8-31.424-4.424-47.112-1.7-16.345-3.492-32.68-5.251-49.018Q39.71,110.355,38.413,97.74l-2.4,2.4c3.69-.412,7.348-1.127,11.052-1.412l-2.4-2.4c1.562,15.436,3.2,30.864,4.811,46.3,1.71,16.412,3.4,32.828,4.937,49.257q1.211,12.9,2.265,25.811a2.461,2.461,0,0,0,2.4,2.4A2.418,2.418,0,0,0,61.478,217.692Z"/>
<path class="c" d="M38.084,180.619c-2.287,14.008-4.911,27.964-7.446,41.929q-1.016,5.589-2.027,11.179-.463,2.56-.924,5.122a26.12,26.12,0,0,0-.772,5.04,7.451,7.451,0,0,0,2.541,5.436,8.53,8.53,0,0,0,5.962,1.828q6.377,0,12.752-.007,11.175-.007,22.348-.017c3.089,0,3.094-4.8,0-4.8q-9.1,0-18.209.014-6.148.006-12.3.009c-1.931,0-3.944.165-5.867,0a2.621,2.621,0,0,1-2.394-2.129c-.217-1.257.34-2.834.567-4.094q.43-2.4.865-4.8.975-5.394,1.955-10.786Q37.182,213.273,39.211,202c1.2-6.7,2.406-13.392,3.5-20.107a2.473,2.473,0,0,0-1.676-2.952,2.421,2.421,0,0,0-2.953,1.676Z"/>
<path class="c" d="M252.563,282.727c-.264-13.985,1.735-27.8,3.557-41.629,1.608-12.205,2.777-24.391,2.381-36.714-.209-6.5-.756-12.992-1.5-19.454A98.914,98.914,0,0,0,253.747,167a62.49,62.49,0,0,0-6.564-14.147c-1.538-2.512-3.033-5.49-5.564-7.121a8.771,8.771,0,0,0-7.3-.96c-4.5,1.265-8.948,2.748-13.384,4.226q-2.915.972-5.82,1.972a15.278,15.278,0,0,0-3.03,1.12,2.43,2.43,0,0,0-.861,3.283l0,0a2.378,2.378,0,0,0,2.072,1.189,4.892,4.892,0,0,0,.732-.109l-1.276-4.629c-1.39.552-2.76,1.158-4.118,1.786-1.272.588-3.264,1.154-3.68,2.666a32.727,32.727,0,0,0-.535,6.1c-.449,6.134-2.07,12.052-3.089,18.1-1.147,6.805-2.018,13.649-2.944,20.486-.929,6.862-1.875,13.675-2.372,20.586a177.177,177.177,0,0,1-2.051,19.524,77.735,77.735,0,0,1-2.69,10.517c-1.078,3.222-2.512,6.307-3.536,9.548a55.657,55.657,0,0,0-2.042,8.663,22.7,22.7,0,0,0-.207,7.15c.427,2.493,2.278,3.812,4.149,5.21a71.251,71.251,0,0,0,9.2,5.466,171.731,171.731,0,0,0,45.938,16.936c3.015.624,4.3-4,1.276-4.629a164.227,164.227,0,0,1-38.277-13.134q-4.52-2.19-8.915-4.623a45.036,45.036,0,0,1-8-5.192c-.51-.444-1.375-1.142-.415-.254a1.041,1.041,0,0,1-.222-.388c.081.5.1.251.064.1-.044-.187-.095-.372-.136-.56-.143-.662.028.5-.031-.226-.041-.507-.054-1.015-.045-1.523a33.652,33.652,0,0,1,.985-6.928c1.378-6.018,4.115-11.532,5.8-17.45a102.7,102.7,0,0,0,3.255-19.046c.554-6.17.811-12.365,1.524-18.521.733-6.328,1.715-12.642,2.583-18.955.485-3.527,1-7.05,1.579-10.563.634-3.837,1.493-7.606,2.239-11.418.931-4.759,1.021-9.544,1.623-14.334l-1.189,2.073c1.818-.9,3.662-1.785,5.549-2.534a2.475,2.475,0,0,0,1.677-2.953,2.433,2.433,0,0,0-2.953-1.676c-.228.064-.391.052.544-.062l2.072,1.188h0l-.861,3.283c-.762.478-.364.156.054,0,.493-.178.987-.349,1.482-.52q2.412-.837,4.834-1.646c3.962-1.33,7.933-2.638,11.931-3.854.821-.249,1.644-.494,2.469-.729a4.677,4.677,0,0,1,2-.356c2.629.326,3.8,3.02,5.055,5.014a60.12,60.12,0,0,1,6.475,13.167,82.916,82.916,0,0,1,3.221,16.171c.767,6.411,1.348,12.847,1.61,19.3a208.553,208.553,0,0,1-1.848,34.637c-1.9,15.06-4.319,30.071-4.032,45.3.058,3.085,4.858,3.1,4.8,0Z"/>
<path class="a" d="M102.307,222.57c.1-.161.2-.312.3-.451,2.4-3.268,3.923-5.943,6.9-8.7A15.01,15.01,0,0,1,120,209.29a22.177,22.177,0,0,1,9.222,2.733c4.053,2.285,9.689,5.566,15.891,8.77l4.043.957c-.231,4.677-.426,10.129-.408,15.042-4.422.842-9.525,1.822-9.525,1.822-5,.909-7.936.416-12.493-2.369-2.4-1.466-4.695-2.91-7.306-1.1-1.62,1.122-1.991,2.017-3.553,3.676-.918.974-1.828,1.241-3.552.576-.781-.3-1.083-1.764-.878-2.968a31.063,31.063,0,0,1,.8-3.5l-2,.866a4.281,4.281,0,0,1-4.72.212c-1.385-1.167-.967-3.877.655-6l-1.583.145a3.092,3.092,0,0,1-3.071-1.97A5.078,5.078,0,0,1,102.307,222.57Z"/>
<path class="c" d="M110.521,230.354c-1,3.049-3.169,8.763.362,10.988a5.5,5.5,0,0,0,5.494.143c1.551-.924,2.428-2.627,3.722-3.831,1.276-1.187,2.335-1.081,3.806-.285,1.728.936,3.331,2.012,5.152,2.778,3.532,1.486,7.08,1.435,10.8.781a2.42,2.42,0,0,0,1.676-2.952,2.453,2.453,0,0,0-2.952-1.676,13.407,13.407,0,0,1-7.729-.566c-3.067-1.293-5.787-4.085-9.341-3.808a8,8,0,0,0-4.805,2.334,15.568,15.568,0,0,0-1.32,1.467,7.217,7.217,0,0,1-1.438,1.618c.025-.013.391-.024,0,.012a.246.246,0,0,1-.2-.022q-.676-.285-.16.1c.542-.218.01.579.191-.076.075-.275.039-.652.09-.95a32.871,32.871,0,0,1,1.278-4.775c.968-2.941-3.665-4.2-4.628-1.276Z"/>
<path class="c" d="M146.32,218.721c-4.158-2.154-8.248-4.432-12.319-6.744-3.744-2.125-7.4-4.189-11.73-4.836a16.8,16.8,0,0,0-12.449,2.964c-3.645,2.618-6.073,6.312-8.644,9.911-1.389,1.944-2.676,4.329-1.974,6.806a5.458,5.458,0,0,0,5.385,3.732,2.455,2.455,0,0,0,2.4-2.4,2.421,2.421,0,0,0-2.4-2.4c-.191.012-.571.067-.743-.244-.107-.2.107-.866.229-1.158a23.974,23.974,0,0,1,2.8-4.117c1.933-2.743,4.086-5.42,7.074-7.057a12.308,12.308,0,0,1,9.34-.944c3.271.844,6.065,2.626,8.974,4.275,3.845,2.18,7.711,4.323,11.637,6.357,2.739,1.418,5.169-2.722,2.423-4.145Z"/>
<path class="c" d="M111.468,217.721a64.48,64.48,0,0,0-5.3,6.183c-1.432,1.89-3.138,3.917-3.671,6.284-.594,2.635.211,5.411,2.9,6.443a6.534,6.534,0,0,0,6.537-1.141,2.4,2.4,0,0,0-3.394-3.394c-.328.321.426-.275.038-.033-.406.253.481-.111-.021.012-.171.042-.34.089-.511.129-.551.13.484.009-.093,0-.185,0-.374,0-.558,0-.487.014.412.138-.079,0a3.082,3.082,0,0,0-.413-.112c-.212-.03.452.239,0-.028q-.221-.146.186.134-.213-.236-.022-.008t.008-.031c.111.3.138.36.079.188-.018-.137-.077-.284-.108-.421.135.595.03.073.033-.1.005-.234.1-.549,0-.156.051-.207.09-.413.152-.618.01-.034.253-.688.071-.264a6.618,6.618,0,0,1,.314-.624,25.915,25.915,0,0,1,1.594-2.344q.4-.552.8-1.1.22-.3.446-.591c-.223.291.19-.243.233-.3a59.786,59.786,0,0,1,4.167-4.718,2.4,2.4,0,0,0-3.394-3.394Z"/>
<path class="c" d="M112.019,235.251c.534-.876,1.1-1.732,1.711-2.558.06-.082.121-.163.181-.244.026-.034.334-.436.088-.118s.04-.048.092-.114c.078-.1.157-.2.236-.294q.476-.585.977-1.146a37.024,37.024,0,0,1,4.373-4.137,2.4,2.4,0,0,0,.7-1.7,2.442,2.442,0,0,0-.7-1.7,2.415,2.415,0,0,0-1.7-.7,2.757,2.757,0,0,0-1.7.7,37.355,37.355,0,0,0-8.408,9.583,2.4,2.4,0,0,0,4.145,2.422Z"/>
<path class="e" d="M197.8,201.386a94.206,94.206,0,0,1-4.774,12.062c-15.291,1.343-29.731,2.53-44.179,3.7a1.3,1.3,0,0,0-1.2,1.3c.182,6.179.134,15.864,1.041,23.143a1.261,1.261,0,0,0,1.251,1.093c19.194.133,34.048-.535,52.156-3.432a27.517,27.517,0,0,0,14.475-6.514,24.607,24.607,0,0,0,4.766-7.465c6.307-13.408,8.237-18.68,11.387-33.013.9-5.562,1.688-11.149.181-16.551a14.94,14.94,0,0,0-11.07-8.829c-6.35-1.039-11.358,2.021-14.7,6.866a32.617,32.617,0,0,0-4.665,10.92C200.728,190.992,199.466,196.2,197.8,201.386Z"/>
<path class="c" d="M195.485,200.748a94.806,94.806,0,0,1-4.531,11.489l2.072-1.189q-15.434,1.354-30.874,2.617-3.855.318-7.711.633l-3.5.285c-1.283.1-2.788.021-3.926.71-2.127,1.289-1.753,3.741-1.71,5.856.041,2.064.074,4.128.123,6.191.106,4.444.253,8.9.743,13.322a5.2,5.2,0,0,0,1.032,3.2,4.336,4.336,0,0,0,3.465,1.24q3.8.022,7.61,0c9.425-.072,18.849-.451,28.229-1.394,4.883-.49,9.752-1.123,14.6-1.871a40.93,40.93,0,0,0,5.863-1.135,33.881,33.881,0,0,0,5.924-2.469,21.566,21.566,0,0,0,9.183-9.061c2.068-3.857,3.819-7.939,5.531-11.966a127.618,127.618,0,0,0,6.878-21.865,51.13,51.13,0,0,0,1.553-15.415,16.5,16.5,0,0,0-1.889-7.051,17.065,17.065,0,0,0-3.974-4.65,16.671,16.671,0,0,0-22.571,1.193c-6.518,6.612-7.9,16.456-10.264,25.033-.583,2.113-1.2,4.217-1.862,6.3-.941,2.95,3.692,4.212,4.629,1.276,1.327-4.16,2.429-8.386,3.555-12.6,1.152-4.317,2.127-8.686,4.368-12.6,1.7-2.968,4.1-5.77,7.379-7.009a11.774,11.774,0,0,1,10.191,1.01,12.606,12.606,0,0,1,3.814,3.537,11.075,11.075,0,0,1,1.842,5.795,48.243,48.243,0,0,1-1.5,14.325,120.649,120.649,0,0,1-6.439,20.626c-1.672,3.916-3.381,7.882-5.391,11.637a17.62,17.62,0,0,1-8.326,7.781c-3.63,1.784-7.421,2.332-11.375,2.92q-6.7,1-13.45,1.625c-9.042.846-18.121,1.175-27.2,1.231q-1.767.012-3.533.01-.962,0-1.922,0a8.058,8.058,0,0,0-1.95-.01c-.8.221.759,1.442.837.745a3.8,3.8,0,0,0-.084-.76q-.072-.681-.133-1.362-.145-1.619-.242-3.239c-.259-4.225-.336-8.459-.415-12.69q-.027-1.444-.058-2.889a7.641,7.641,0,0,0-.028-1.164c-.088-.465.244-.852-.379.05-.567.821-.129.51.567.454l7.229-.59q7.283-.6,14.565-1.2,7.433-.623,14.864-1.263l3.663-.318c1.287-.113,3.177.06,4.156-.919a11.094,11.094,0,0,0,1.675-3.326q.765-1.746,1.471-3.517c.822-2.066,1.561-4.162,2.245-6.278C201.066,199.078,196.433,197.816,195.485,200.748Z"/>
<path class="c" d="M179.823,137.756a13.476,13.476,0,0,0,5.215-1.385,9.234,9.234,0,0,0,1.613-1.105,6.233,6.233,0,0,0,1-1.118,2.412,2.412,0,0,0,.242-1.85,2.452,2.452,0,0,0-1.1-1.434,2.425,2.425,0,0,0-1.85-.242l-.573.242a2.416,2.416,0,0,0-.861.861l-.017.023.375-.486a4.083,4.083,0,0,1-.724.7l.485-.375a7.272,7.272,0,0,1-1.6.912l.574-.242a11.175,11.175,0,0,1-2.763.716l.638-.086c-.216.027-.432.05-.649.066a2.567,2.567,0,0,0-1.7.7,2.4,2.4,0,0,0,0,3.394,2.364,2.364,0,0,0,1.7.7Z"/>
<path class="c" d="M182.036,114.058c-.213,1.544.571,4.9,3.272,4.792,3.51-.553,3.089-4.695,1.621-6.45C185.726,110.963,182.782,110.735,182.036,114.058Z"/>
<path class="a" d="M284.365,170.519c-.889,4.847-3.25,12.051-4.057,20.623-2.889,30.667-10.371,84.735-13.926,122.661-1.185,11.851-2.209,23.764-4.3,35.3H151.608c0-2.032.008-4.7.012-7.849,26.822-.322,74.194-1.264,90.441-1.658,3.678-34.15,19.4-143.465,21-167.344.465-6.364,10.233-7.162,16.519-8.216C284.668,163.179,285.253,165.671,284.365,170.519Z"/>
<path class="c" d="M137.684,343.758c12.668,0,25.337-.253,38-.464q23.833-.4,47.667-.894,9.366-.193,18.732-.413c3.083-.075,3.095-4.876,0-4.8q-19.271.469-38.543.807-23.757.454-47.517.8c-6.114.081-12.228.164-18.342.165-3.089,0-3.094,4.8,0,4.8Z"/>
<path class="a" d="M140.346,352.325c0-8.57.14-57.566.21-86.436,4.514-.022,8.337-.044,11.262-.065-.079,29.169-.212,78.127-.212,86.5Z"/>
<path class="c" d="M154.005,352.328c0-8.518.035-17.035.058-25.553q.055-20.1.115-40.2.029-9.864.055-19.729c.008-3.089-4.792-3.093-4.8,0q-.051,18.775-.107,37.551-.052,18.418-.1,36.836-.013,5.547-.02,11.095c0,3.088,4.8,3.093,4.8,0Z"/>
<path class="c" d="M142.745,352.328c0-8.518.035-17.035.059-25.553q.054-20.1.114-40.2.029-9.864.056-19.729c.008-3.089-4.792-3.093-4.8,0q-.051,18.775-.107,37.551-.053,18.418-.1,36.836-.014,5.547-.021,11.095c0,3.088,4.8,3.093,4.8,0Z"/>
<path class="c" d="M244.486,339.365c.918-8.48,2-16.943,3.084-25.4q2.211-17.259,4.526-34.506,2.508-18.869,5.014-37.737,2.316-17.542,4.543-35.1c1.11-8.852,2.209-17.709,3.118-26.585.156-1.53.306-3.061.441-4.593q.086-.969.162-1.938a8.417,8.417,0,0,1,.243-1.9c.126-.437.075-.233.025-.118a4.106,4.106,0,0,1,.227-.431,2.461,2.461,0,0,1,.267-.4,4.279,4.279,0,0,1,1.271-1.083,13.143,13.143,0,0,1,3.673-1.513,76.265,76.265,0,0,1,9.142-1.713c.414-.064-.1-.022.43-.05.244-.013.488-.031.733-.029.127,0,.759.055.411.006s.339.1.457.131c-.44-.117-.276,0-.01.027.046,0-.384-.334-.035-.007.251.235-.419-.4,0,.039.128.135-.049-.42.009.07.013.107.133.661.076.281-.061-.4.009.245.013.348a12.662,12.662,0,0,1-.07,1.545c-.008.089-.053.465.006.011-.02.151-.043.3-.068.453-.046.277-.093.555-.144.831-.121.65-.26,1.3-.4,1.94-.744,3.313-1.62,6.593-2.3,9.92a109.294,109.294,0,0,0-1.618,11.42c-1.378,14.123-3.093,28.213-4.793,42.3-1.961,16.25-3.963,32.5-5.817,48.759-1.9,16.695-3.257,33.454-5.259,50.136-.562,4.68-1.23,9.345-2.065,13.983a2.469,2.469,0,0,0,1.677,2.953,2.421,2.421,0,0,0,2.952-1.677c3.211-17.853,4.277-36.053,6.233-54.071,1.793-16.53,3.8-33.037,5.8-49.543,1.839-15.169,3.71-30.336,5.322-45.532.745-7.02,1.34-13.97,2.945-20.865.7-3.008,1.553-6,2.062-9.046.363-2.177.728-4.751-.477-6.753-1.255-2.087-3.7-2.632-5.973-2.4a71.1,71.1,0,0,0-9.461,1.627c-2.89.7-6.084,1.807-8.11,4.1-1.7,1.927-2,4.1-2.193,6.551-.6,7.616-1.544,15.209-2.461,22.792-1.357,11.235-2.808,22.459-4.275,33.681q-2.506,19.168-5.074,38.328-2.445,18.364-4.855,36.731c-1.253,9.624-2.5,19.251-3.62,28.891q-.3,2.563-.578,5.13a2.415,2.415,0,0,0,2.4,2.4,2.457,2.457,0,0,0,2.4-2.4Z"/>
<path class="a" d="M6.579,266.289c24.975-.053,133.806-.313,149.729-.5,0-5.16-.087-9.012-.087-13.41h-.866c-11.764.007-134.628.1-152.927.1,0,3.04-.011,7.893-.028,13.828l4.179-.009"/>
<path class="a" d="M7.156,352.325c0-8.53.14-57.117.21-86.037l11.259-.026c-.069,28.919-.209,77.532-.209,86.063Z"/>
<path class="c" d="M6.579,268.689q11.453-.024,22.9-.052,17.1-.042,34.191-.088,18.79-.051,37.583-.111,16.539-.052,33.08-.121c6.878-.03,13.757-.053,20.636-.118l1.335-.015a2.436,2.436,0,0,0,2.4-2.4c0-4.47-.085-8.94-.087-13.41a2.434,2.434,0,0,0-2.4-2.4q-9.229,0-18.459.012l-33.721.023-40.017.027-36.6.022q-11.736.007-23.472.011H2.428a2.434,2.434,0,0,0-2.4,2.4q0,6.914-.028,13.828a2.434,2.434,0,0,0,2.4,2.4l4.179-.009c3.088-.006,3.094-4.806,0-4.8L2.4,263.9l2.4,2.4q.019-6.915.028-13.828l-2.4,2.4q10.629,0,21.26-.009l35.528-.022,40.121-.027,35-.024,20.165-.014h1.719l-2.4-2.4c0,4.47.084,8.94.087,13.41l2.4-2.4c-6.212.074-12.425.09-18.637.118q-16,.073-31.995.122-18.728.062-37.457.112-17.512.05-35.024.092-12.316.03-24.632.057l-1.984,0c-3.088.007-3.094,4.807,0,4.8Z"/>
<path class="c" d="M9.56,352.328c0-8.518.035-17.035.059-25.553q.054-20.1.114-40.2.029-9.864.056-19.729c.008-3.089-4.792-3.093-4.8,0q-.051,18.775-.107,37.551-.054,18.418-.1,36.836-.013,5.547-.021,11.095c0,3.088,4.8,3.093,4.8,0Z"/>
<path class="c" d="M20.82,352.328c0-8.518.034-17.035.058-25.553q.054-20.1.114-40.2.028-9.864.056-19.729c.008-3.089-4.792-3.093-4.8,0q-.051,18.775-.107,37.551-.052,18.418-.1,36.836-.014,5.547-.02,11.095c0,3.088,4.8,3.093,4.8,0Z"/>
<path class="d" d="M102.919,0A35.487,35.487,0,0,0,81.691,6.847a34.7,34.7,0,0,0-12.241,17.4c-4.223,13.57-.141,29.9,11.236,38.766s28.612,9.79,41.04,2.538c12.526-7.309,17.864-22.351,15.808-36.293A34.413,34.413,0,0,0,108.906.482,41.24,41.24,0,0,0,102.919,0c-3.089-.015-3.093,4.785,0,4.8a31.008,31.008,0,0,1,18.521,5.966,29.385,29.385,0,0,1,10.315,14.711c3.659,11.741.451,25.833-9.17,33.691C113.2,66.834,98.1,67.6,87.52,61.8c-11.086-6.075-16.444-19.22-14.538-31.566a30.279,30.279,0,0,1,8.063-16.475,29.921,29.921,0,0,1,16.8-8.6,32.722,32.722,0,0,1,5.072-.367C106.007,4.785,106.013-.015,102.919,0Z"/>
<path class="d" d="M102.671,37.824c4.974.077,9.949.137,14.923.144a2.4,2.4,0,1,0,0-4.8c-4.974-.007-9.949-.067-14.923-.144a2.4,2.4,0,0,0,0,4.8Z"/>
<path class="d" d="M100.214,13.47c0,7.318.055,14.636.057,21.954,0,3.089,4.8,3.094,4.8,0,0-7.318-.057-14.636-.057-21.954,0-3.088-4.8-3.093-4.8,0Z"/>
</g>
</svg>