<?xml version="1.0" encoding="iso-8859-1"?>
<!-- Uploaded to: SVG Repo, www.svgrepo.com, Generator: SVG Repo Mixer Tools -->
<svg height="800px" width="800px" version="1.1" id="Layer_1" xmlns="http://www.w3.org/2000/svg" xmlns:xlink="http://www.w3.org/1999/xlink" 
	 viewBox="0 0 512.001 512.001" xml:space="preserve">
<path style="fill:#355468;" d="M509.493,475.911c2.092,2.1,2.093,5.536,0.001,7.636l-26.777,26.879c-2.092,2.099-5.515,2.1-7.608,0
	L335.064,369.877c-2.092-2.1-2.093-5.537,0-7.636l26.777-26.879c2.092-2.1,5.515-2.1,7.608,0L509.493,475.911z"/>
<path style="opacity:0.1;enable-background:new    ;" d="M346.265,351.305c-0.053-0.053-0.088-0.115-0.138-0.169l-11.062,11.105
	c-2.092,2.099-2.092,5.536,0,7.636L475.11,510.426c2.093,2.1,5.516,2.099,7.608,0l11.048-11.091L346.265,351.305z"/>
<path style="fill:#5A482E;" d="M395.613,347.81c2.093,2.099,2.094,5.535,0.002,7.636l-40.523,40.691
	c-2.091,2.101-5.515,2.101-7.608,0.002l-19.288-19.35c-2.093-2.1-2.093-5.536-0.002-7.637l40.523-40.69
	c2.091-2.101,5.515-2.101,7.608-0.002L395.613,347.81z"/>
<path style="opacity:0.1;enable-background:new    ;" d="M345.282,351.995l-17.087,17.157c-2.091,2.101-2.091,5.537,0.002,7.637
	l19.288,19.35c2.092,2.099,5.516,2.099,7.608-0.002l17.004-17.24L345.282,351.995z"/>
<path style="fill:#8AA5B6;" d="M354.263,60.844c80.828,81.125,80.828,212.654,0,293.778c-80.828,81.126-211.875,81.126-292.704,0
	c-80.828-81.125-80.828-212.654,0-293.778C142.388-20.281,273.435-20.281,354.263,60.844z"/>
<path style="opacity:0.1;enable-background:new    ;" d="M83.797,354.623c-80.828-81.125-80.828-212.654,0-293.778
	C121.382,23.12,169.826,2.951,219.03,0.309c-56.61-3.039-114.227,17.133-157.47,60.535c-80.828,81.125-80.828,212.654,0,293.778
	c43.243,43.402,100.86,63.574,157.471,60.536C169.826,412.517,121.383,392.347,83.797,354.623z"/>
<path style="fill:#B9F5ED;" d="M329.318,329.585c-66.943,67.189-175.867,67.189-242.811,0c-66.945-67.19-66.945-176.514,0-243.704
	c66.943-67.19,175.868-67.19,242.811,0C396.26,153.071,396.26,262.395,329.318,329.585z"/>
<path style="fill:#BF953E;" d="M208.15,334.226c-3.673,0-7.159-1.656-9.498-4.517L86.146,192.219
	c-3.448-4.213-3.767-10.206-0.788-14.768l40.152-61.47c2.278-3.488,6.145-5.589,10.283-5.589h144.711
	c4.14,0,8.005,2.101,10.286,5.589l40.148,61.47c2.981,4.562,2.662,10.555-0.786,14.768L217.648,329.708
	C215.308,332.57,211.825,334.226,208.15,334.226z"/>
<g>
	<path style="fill:#EFBA50;" d="M130.199,111.768c-1.867,0.961-3.495,2.391-4.685,4.213l-40.154,61.471
		c-1.519,2.328-2.178,5.028-2.001,7.677h94.762L130.199,111.768z"/>
	<path style="fill:#EFBA50;" d="M238.178,185.129h94.765c0.176-2.649-0.481-5.349-2.004-7.677l-40.153-61.471
		c-1.19-1.822-2.816-3.252-4.686-4.213L238.178,185.129z"/>
	<polygon style="fill:#EFBA50;" points="208.15,334.252 257.038,185.129 159.564,185.129 	"/>
</g>
<polygon style="fill:#F9D984;" points="208.079,110.393 159.263,185.129 257.038,185.129 208.22,110.393 "/>
<path style="opacity:0.1;enable-background:new    ;" d="M118.953,192.219c-3.448-4.213-3.767-10.206-0.788-14.768l40.152-61.47
	c2.279-3.488,6.145-5.589,10.284-5.589h-32.807c-4.138,0-8.005,2.101-10.283,5.589l-40.152,61.47
	c-2.98,4.562-2.661,10.555,0.788,14.768l112.506,137.489C200.993,332.57,118.953,192.219,118.953,192.219z"/>
<path style="opacity:0.1;enable-background:new    ;" d="M120.356,329.585c-66.945-67.19-66.945-176.514,0-243.704
	c29.171-29.278,66.314-45.794,104.481-49.555C175.417,31.455,124.279,47.97,86.506,85.881c-66.945,67.19-66.945,176.514,0,243.704
	c37.772,37.91,88.91,54.426,138.331,49.555C186.67,375.377,149.527,358.863,120.356,329.585z"/>
<path style="fill:#FFC753;" d="M328.955,97.551c-2.853,0-5.343-1.895-6.102-4.629c-6.012-21.716-9.86-25.548-31.641-31.543
	c-2.744-0.759-4.65-3.241-4.65-6.077c0-2.839,1.906-5.325,4.65-6.08c21.782-5.994,25.628-9.825,31.641-31.541
	c0.76-2.737,3.249-4.628,6.102-4.628c2.846,0,5.34,1.891,6.099,4.628c6.014,21.715,9.854,25.547,31.645,31.541
	c2.742,0.757,4.637,3.242,4.637,6.08c0,2.836-1.895,5.32-4.637,6.077c-21.789,5.995-25.63,9.826-31.645,31.543
	C334.297,95.654,331.801,97.551,328.955,97.551z"/>
<path style="fill:#FFFFFF;" d="M291.908,155.983c-1.936,0-3.626-1.287-4.141-3.142c-4.081-14.74-6.693-17.342-21.478-21.411
	c-1.862-0.513-3.156-2.2-3.156-4.124c0-1.927,1.294-3.614,3.156-4.126c14.785-4.069,17.395-6.67,21.478-21.409
	c0.515-1.858,2.205-3.142,4.141-3.142c1.932,0,3.626,1.284,4.14,3.142c4.082,14.739,6.689,17.341,21.479,21.409
	c1.861,0.512,3.147,2.2,3.147,4.126c0,1.925-1.286,3.611-3.147,4.124c-14.789,4.07-17.396,6.671-21.479,21.411
	C295.534,154.696,293.84,155.983,291.908,155.983z"/>
</svg>