<?xml version="1.0" encoding="iso-8859-1"?>
<!-- Uploaded to: SVG Repo, www.svgrepo.com, Generator: SVG Repo Mixer Tools -->
<svg height="800px" width="800px" version="1.1" id="Layer_1" xmlns="http://www.w3.org/2000/svg" xmlns:xlink="http://www.w3.org/1999/xlink" 
	 viewBox="0 0 512 512" xml:space="preserve">
<path style="fill:#D7EBFF;" d="M256,512C114.837,512,0,397.157,0,256S114.837,0,256,0s256,114.843,256,256S397.163,512,256,512z"/>
<path style="fill:#C4E2FF;" d="M512,256C512,114.843,397.163,0,256,0v512C397.163,512,512,397.157,512,256z"/>
<path style="fill:#FF9F19;" d="M256,478.609c-122.75,0-222.609-99.864-222.609-222.609S133.25,33.391,256,33.391
	S478.609,133.256,478.609,256S378.75,478.609,256,478.609z"/>
<path style="fill:#F28618;" d="M478.609,256c0-122.744-99.859-222.609-222.609-222.609v445.217
	C378.75,478.609,478.609,378.744,478.609,256z"/>
<path style="fill:#FFFFFF;" d="M326.739,378.831L256,341.646l-70.739,37.185c-5.62,2.951-12.435,2.473-17.587-1.272
	c-5.141-3.733-7.718-10.065-6.642-16.332l13.521-78.761l-57.238-55.781c-4.555-4.434-6.185-11.07-4.228-17.114
	c1.968-6.044,7.196-10.451,13.478-11.364l79.097-11.494l35.369-71.663c2.806-5.701,8.611-9.309,14.969-9.309
	s12.163,3.608,14.967,9.309l35.369,71.663l79.097,11.494c6.283,0.913,11.511,5.32,13.478,11.364
	c1.957,6.044,0.326,12.68-4.228,17.114l-57.239,55.782l13.521,78.761c1.076,6.266-1.5,12.597-6.642,16.332
	C339.278,381.224,332.481,381.843,326.739,378.831z"/>
<path style="fill:#EDF0F2;" d="M326.739,378.831c5.742,3.011,12.538,2.392,17.587-1.272c5.141-3.733,7.718-10.065,6.642-16.332
	l-13.521-78.761l57.239-55.782c4.555-4.434,6.185-11.07,4.228-17.114c-1.968-6.044-7.196-10.451-13.478-11.364l-79.097-11.494
	l-35.369-71.663c-2.807-5.7-8.612-9.308-14.97-9.308v235.907L326.739,378.831z"/>
</svg>