<svg width="576" height="215" viewBox="0 0 576 215" fill="none" xmlns="http://www.w3.org/2000/svg">
<rect width="576" height="215" rx="16" fill="url(#paint0_linear_2_9)"/>
<rect x="0.5" y="0.5" width="575" height="214" rx="15.5" stroke="url(#paint1_linear_2_9)" stroke-opacity="0.1"/>
<path d="M74.3 150.5C66.3667 150.5 59.4667 149.067 53.6 146.2C47.7333 143.267 43.2333 139.133 40.1 133.8C36.9667 128.467 35.4 122.267 35.4 115.2C35.4 105.4 37.2333 96.7 40.9 89.1C44.6333 81.5 49.6667 75.6333 56 71.5C62.3333 67.3 69.3667 65.2 77.1 65.2C84.3 65.2 89.7667 67.0667 93.5 70.8C97.2333 74.4667 99.1 79.3333 99.1 85.4C99.1 89.4667 98.3667 92.7333 96.9 95.2C95.5 97.6667 93.4667 98.9 90.8 98.9C88.9333 98.9 87.4667 98.4667 86.4 97.6C85.3333 96.7333 84.8 95.4667 84.8 93.8C84.8 93.2 84.9333 92.1 85.2 90.5C85.6 88.5 85.8 86.9 85.8 85.7C85.8 79.6333 82.5667 76.6 76.1 76.6C71.7 76.6 67.5 78.0333 63.5 80.9C59.5 83.7667 56.2667 88 53.8 93.6C51.3333 99.1333 50.1 105.733 50.1 113.4C50.1 121.4 52.3333 127.6 56.8 132C61.2667 136.333 67.8667 138.5 76.6 138.5C80.9333 138.5 85.3 137.967 89.7 136.9C94.1667 135.767 99.1 134.067 104.5 131.8C105.5 131.4 106.333 131.2 107 131.2C108.067 131.2 108.867 131.6 109.4 132.4C109.933 133.2 110.2 134.233 110.2 135.5C110.2 139.567 108 142.567 103.6 144.5C98.8667 146.567 93.9333 148.1 88.8 149.1C83.7333 150.033 78.9 150.5 74.3 150.5ZM114.655 150.5C110.521 150.5 107.221 149 104.755 146C102.288 143 101.055 139.067 101.055 134.2C101.055 128.867 102.288 123.833 104.755 119.1C107.221 114.3 110.488 110.467 114.555 107.6C118.688 104.667 123.055 103.2 127.655 103.2C129.121 103.2 130.088 103.5 130.555 104.1C131.088 104.633 131.521 105.633 131.855 107.1C133.255 106.833 134.721 106.7 136.255 106.7C139.521 106.7 141.155 107.867 141.155 110.2C141.155 111.6 140.655 114.933 139.655 120.2C138.121 127.867 137.355 133.2 137.355 136.2C137.355 137.2 137.588 138 138.055 138.6C138.588 139.2 139.255 139.5 140.055 139.5C141.321 139.5 142.855 138.7 144.655 137.1C146.455 135.433 148.888 132.767 151.955 129.1C152.755 128.167 153.655 127.7 154.655 127.7C155.521 127.7 156.188 128.1 156.655 128.9C157.188 129.7 157.455 130.8 157.455 132.2C157.455 134.867 156.821 136.933 155.555 138.4C152.821 141.8 149.921 144.667 146.855 147C143.788 149.333 140.821 150.5 137.955 150.5C135.755 150.5 133.721 149.767 131.855 148.3C130.055 146.767 128.688 144.7 127.755 142.1C124.288 147.7 119.921 150.5 114.655 150.5ZM118.255 140.4C119.721 140.4 121.121 139.533 122.455 137.8C123.788 136.067 124.755 133.767 125.355 130.9L129.055 112.5C126.255 112.567 123.655 113.633 121.255 115.7C118.921 117.7 117.055 120.367 115.655 123.7C114.255 127.033 113.555 130.567 113.555 134.3C113.555 136.367 113.955 137.9 114.755 138.9C115.621 139.9 116.788 140.4 118.255 140.4ZM156.427 150.5C153.894 150.5 152.094 149.167 151.027 146.5C150.027 143.833 149.527 139.567 149.527 133.7C149.527 125.033 150.761 116.8 153.227 109C153.827 107.067 154.794 105.667 156.127 104.8C157.527 103.867 159.461 103.4 161.927 103.4C163.261 103.4 164.194 103.567 164.727 103.9C165.261 104.233 165.527 104.867 165.527 105.8C165.527 106.867 165.027 109.267 164.027 113C163.361 115.667 162.827 118 162.427 120C162.027 122 161.694 124.467 161.427 127.4C163.627 121.667 166.094 117 168.827 113.4C171.561 109.8 174.227 107.233 176.827 105.7C179.494 104.167 181.927 103.4 184.127 103.4C188.461 103.4 190.627 105.567 190.627 109.9C190.627 110.767 190.327 112.867 189.727 116.2C189.194 118.867 188.927 120.533 188.927 121.2C188.927 123.533 189.761 124.7 191.427 124.7C193.294 124.7 195.694 123.233 198.627 120.3C199.494 119.433 200.394 119 201.327 119C202.194 119 202.861 119.4 203.327 120.2C203.861 120.933 204.127 121.933 204.127 123.2C204.127 125.667 203.461 127.6 202.127 129C200.261 130.933 198.061 132.6 195.527 134C193.061 135.333 190.427 136 187.627 136C184.094 136 181.394 135.1 179.527 133.3C177.727 131.5 176.827 129.067 176.827 126C176.827 125 176.927 124 177.127 123C177.261 121.667 177.327 120.767 177.327 120.3C177.327 119.233 176.961 118.7 176.227 118.7C175.227 118.7 173.894 119.833 172.227 122.1C170.627 124.3 169.027 127.233 167.427 130.9C165.827 134.567 164.527 138.433 163.527 142.5C162.794 145.633 161.927 147.767 160.927 148.9C159.994 149.967 158.494 150.5 156.427 150.5ZM201.935 150.5C199.402 150.5 197.602 149.167 196.535 146.5C195.535 143.833 195.035 139.567 195.035 133.7C195.035 125.033 196.268 116.8 198.735 109C199.335 107.067 200.302 105.667 201.635 104.8C203.035 103.867 204.968 103.4 207.435 103.4C208.768 103.4 209.702 103.567 210.235 103.9C210.768 104.233 211.035 104.867 211.035 105.8C211.035 106.867 210.535 109.267 209.535 113C208.868 115.667 208.335 118 207.935 120C207.535 122 207.202 124.467 206.935 127.4C209.135 121.667 211.602 117 214.335 113.4C217.068 109.8 219.735 107.233 222.335 105.7C225.002 104.167 227.435 103.4 229.635 103.4C233.968 103.4 236.135 105.567 236.135 109.9C236.135 110.767 235.835 112.867 235.235 116.2C234.702 118.867 234.435 120.533 234.435 121.2C234.435 123.533 235.268 124.7 236.935 124.7C238.802 124.7 241.202 123.233 244.135 120.3C245.002 119.433 245.902 119 246.835 119C247.702 119 248.368 119.4 248.835 120.2C249.368 120.933 249.635 121.933 249.635 123.2C249.635 125.667 248.968 127.6 247.635 129C245.768 130.933 243.568 132.6 241.035 134C238.568 135.333 235.935 136 233.135 136C229.602 136 226.902 135.1 225.035 133.3C223.235 131.5 222.335 129.067 222.335 126C222.335 125 222.435 124 222.635 123C222.768 121.667 222.835 120.767 222.835 120.3C222.835 119.233 222.468 118.7 221.735 118.7C220.735 118.7 219.402 119.833 217.735 122.1C216.135 124.3 214.535 127.233 212.935 130.9C211.335 134.567 210.035 138.433 209.035 142.5C208.302 145.633 207.435 147.767 206.435 148.9C205.502 149.967 204.002 150.5 201.935 150.5ZM275.343 103.4C276.876 103.4 277.943 103.6 278.543 104C279.143 104.4 279.443 105.067 279.443 106C279.443 107.6 278.576 113.3 276.843 123.1C275.31 132.5 274.41 138.067 274.143 139.8C271.676 156.933 268.276 170.5 263.943 180.5C259.61 190.5 253.843 195.5 246.643 195.5C243.243 195.5 240.476 194.433 238.343 192.3C236.21 190.233 235.143 187.5 235.143 184.1C235.143 180.967 235.843 177.767 237.243 174.5C238.71 171.233 241.376 167.467 245.243 163.2C249.176 159 254.71 154.167 261.843 148.7L262.143 146.4C262.61 143.933 263.143 140.4 263.743 135.8C262.41 140.6 260.543 144.267 258.143 146.8C255.743 149.267 253.21 150.5 250.543 150.5C247.543 150.5 245.076 149.133 243.143 146.4C241.276 143.6 240.343 140.133 240.343 136C240.343 131 240.676 126.433 241.343 122.3C242.01 118.1 243.11 113.667 244.643 109C245.31 107 246.243 105.567 247.443 104.7C248.643 103.833 250.543 103.4 253.143 103.4C254.61 103.4 255.61 103.633 256.143 104.1C256.743 104.567 257.043 105.267 257.043 106.2C257.043 106.733 256.676 108.533 255.943 111.6C255.276 114.067 254.743 116.3 254.343 118.3C253.81 121.033 253.343 123.667 252.943 126.2C252.543 128.667 252.343 130.7 252.343 132.3C252.343 134.833 253.043 136.1 254.443 136.1C255.443 136.1 256.676 135.1 258.143 133.1C259.676 131.1 261.276 128.067 262.943 124C264.676 119.933 266.343 114.933 267.943 109C268.476 107 269.276 105.567 270.343 104.7C271.476 103.833 273.143 103.4 275.343 103.4ZM247.743 185.8C249.41 185.8 251.276 183.867 253.343 180C255.41 176.133 257.476 169.7 259.543 160.7C254.41 165.033 250.676 168.967 248.343 172.5C246.076 176.1 244.943 179.233 244.943 181.9C244.943 183.033 245.143 183.967 245.543 184.7C246.01 185.433 246.743 185.8 247.743 185.8ZM330.13 150.5C327.663 150.5 325.896 149.967 324.83 148.9C323.763 147.767 323.23 145.667 323.23 142.6C323.23 140.533 323.43 137.9 323.83 134.7C324.296 131.433 325.03 126.967 326.03 121.3C327.763 110.833 329.13 101.767 330.13 94.1C330.73 89.3 331.03 85.3 331.03 82.1C331.03 79.1 329.93 77.6 327.73 77.6C325.996 77.6 323.896 78.5 321.43 80.3C319.03 82.0333 316.363 84.8333 313.43 88.7C312.496 89.9667 311.463 90.6 310.33 90.6C309.396 90.6 308.563 90.1667 307.83 89.3C307.163 88.3667 306.83 87.3333 306.83 86.2C306.83 85.1333 307.03 84.0667 307.43 83C307.896 81.8667 308.63 80.6 309.63 79.2C312.83 74.7333 316.396 71.3 320.33 68.9C324.263 66.4333 328.196 65.2 332.13 65.2C335.796 65.2 338.596 66.3667 340.53 68.7C342.53 71.0333 343.53 74.4333 343.53 78.9C343.53 80.7 343.363 82.8333 343.03 85.3C342.696 87.7 342.396 89.6667 342.13 91.2C341.863 92.7333 341.663 93.8 341.53 94.4C345.33 83.5333 349.596 75.9667 354.33 71.7C359.063 67.3667 364.263 65.2 369.93 65.2C374.263 65.2 377.663 66.7333 380.13 69.8C382.663 72.8667 383.93 77.2 383.93 82.8C383.93 85 383.63 87.7333 383.03 91C386.363 81.8 390.263 75.2 394.73 71.2C399.196 67.2 404.33 65.2 410.13 65.2C414.796 65.2 418.363 66.7 420.83 69.7C423.363 72.7 424.63 76.9 424.63 82.3C424.63 85.2333 424.196 88.8 423.33 93L417.23 121.6C416.563 124.933 416.23 127.8 416.23 130.2C416.23 133 416.863 135.1 418.13 136.5C419.463 137.9 421.296 138.6 423.63 138.6C425.83 138.6 427.963 137.867 430.03 136.4C432.163 134.933 434.663 132.5 437.53 129.1C438.33 128.167 439.23 127.7 440.23 127.7C441.096 127.7 441.763 128.1 442.23 128.9C442.763 129.7 443.03 130.8 443.03 132.2C443.03 134.8 442.396 136.867 441.13 138.4C437.663 142.6 434.23 145.667 430.83 147.6C427.43 149.533 423.863 150.5 420.13 150.5C414.463 150.5 410.03 148.833 406.83 145.5C403.63 142.1 402.03 137.567 402.03 131.9C402.03 127.967 402.83 122.267 404.43 114.8L408.43 96.5C408.563 95.9 408.796 94.8333 409.13 93.3C409.463 91.7667 409.73 90.3333 409.93 89C410.13 87.6 410.23 86.2333 410.23 84.9C410.23 82.5667 409.763 80.8333 408.83 79.7C407.963 78.5 406.696 77.9 405.03 77.9C401.896 77.9 398.596 79.9333 395.13 84C391.73 88 388.463 94.6667 385.33 104C382.263 113.333 379.763 125.467 377.83 140.4C377.363 144.4 376.53 147.1 375.33 148.5C374.196 149.833 372.33 150.5 369.73 150.5C367.463 150.5 365.796 149.967 364.73 148.9C363.73 147.833 363.23 145.833 363.23 142.9C363.23 140.167 363.596 136.6 364.33 132.2C365.063 127.733 365.996 122.5 367.13 116.5C370.196 100.367 371.73 89.9667 371.73 85.3C371.73 82.7667 371.23 80.9 370.23 79.7C369.296 78.5 367.863 77.9 365.93 77.9C362.663 77.9 359.296 79.7667 355.83 83.5C352.363 87.1667 348.963 93.7333 345.63 103.2C342.363 112.6 339.63 125.333 337.43 141.4C336.963 144.8 336.263 147.167 335.33 148.5C334.463 149.833 332.73 150.5 330.13 150.5ZM448.072 96.8C445.272 96.8 443.172 96.1667 441.772 94.9C440.372 93.5667 439.672 91.7333 439.672 89.4C439.672 87.0667 440.572 85.1333 442.372 83.6C444.239 82 446.539 81.2 449.272 81.2C451.739 81.2 453.739 81.8 455.272 83C456.805 84.2 457.572 85.9 457.572 88.1C457.572 90.7667 456.705 92.9 454.972 94.5C453.239 96.0333 450.939 96.8 448.072 96.8ZM447.272 150.5C442.939 150.5 439.772 148.967 437.772 145.9C435.839 142.833 434.872 138.767 434.872 133.7C434.872 130.7 435.239 126.867 435.972 122.2C436.772 117.467 437.772 113.067 438.972 109C439.572 106.867 440.372 105.4 441.372 104.6C442.372 103.8 443.972 103.4 446.172 103.4C449.572 103.4 451.272 104.533 451.272 106.8C451.272 108.467 450.639 112.333 449.372 118.4C447.772 125.733 446.972 130.7 446.972 133.3C446.972 135.3 447.239 136.833 447.772 137.9C448.305 138.967 449.205 139.5 450.472 139.5C451.672 139.5 453.172 138.667 454.972 137C456.772 135.333 459.172 132.7 462.172 129.1C462.972 128.167 463.872 127.7 464.872 127.7C465.739 127.7 466.405 128.1 466.872 128.9C467.405 129.7 467.672 130.8 467.672 132.2C467.672 134.867 467.039 136.933 465.772 138.4C459.172 146.467 453.005 150.5 447.272 150.5ZM466.681 150.5C464.148 150.5 462.348 149.167 461.281 146.5C460.281 143.833 459.781 139.567 459.781 133.7C459.781 125.033 461.015 116.8 463.481 109C464.081 107.067 465.048 105.667 466.381 104.8C467.781 103.867 469.715 103.4 472.181 103.4C473.515 103.4 474.448 103.567 474.981 103.9C475.515 104.233 475.781 104.867 475.781 105.8C475.781 106.867 475.281 109.267 474.281 113C473.615 115.667 473.081 118 472.681 120C472.281 122 471.948 124.467 471.681 127.4C473.881 121.667 476.348 117 479.081 113.4C481.815 109.8 484.481 107.233 487.081 105.7C489.748 104.167 492.181 103.4 494.381 103.4C498.715 103.4 500.881 105.567 500.881 109.9C500.881 110.767 500.581 112.867 499.981 116.2C499.448 118.867 499.181 120.533 499.181 121.2C499.181 123.533 500.015 124.7 501.681 124.7C503.548 124.7 505.948 123.233 508.881 120.3C509.748 119.433 510.648 119 511.581 119C512.448 119 513.115 119.4 513.581 120.2C514.115 120.933 514.381 121.933 514.381 123.2C514.381 125.667 513.715 127.6 512.381 129C510.515 130.933 508.315 132.6 505.781 134C503.315 135.333 500.681 136 497.881 136C494.348 136 491.648 135.1 489.781 133.3C487.981 131.5 487.081 129.067 487.081 126C487.081 125 487.181 124 487.381 123C487.515 121.667 487.581 120.767 487.581 120.3C487.581 119.233 487.215 118.7 486.481 118.7C485.481 118.7 484.148 119.833 482.481 122.1C480.881 124.3 479.281 127.233 477.681 130.9C476.081 134.567 474.781 138.433 473.781 142.5C473.048 145.633 472.181 147.767 471.181 148.9C470.248 149.967 468.748 150.5 466.681 150.5ZM521.989 150.5C518.056 150.5 514.689 149.533 511.889 147.6C509.156 145.6 507.089 143 505.689 139.8C504.289 136.6 503.589 133.167 503.589 129.5C503.589 124.433 504.522 119.933 506.389 116C508.322 112 510.922 108.9 514.189 106.7C517.456 104.433 521.122 103.3 525.189 103.3C529.122 103.3 532.489 104.3 535.289 106.3C538.089 108.233 540.189 110.8 541.589 114C542.989 117.2 543.689 120.633 543.689 124.3C543.689 129.367 542.722 133.9 540.789 137.9C538.856 141.833 536.222 144.933 532.889 147.2C529.622 149.4 525.989 150.5 521.989 150.5ZM523.089 139.7C525.356 139.7 527.256 138.467 528.789 136C530.389 133.533 531.189 129.933 531.189 125.2C531.189 121.533 530.522 118.767 529.189 116.9C527.856 115.033 526.256 114.1 524.389 114.1C521.989 114.1 519.989 115.333 518.389 117.8C516.856 120.2 516.089 123.8 516.089 128.6C516.089 132.4 516.756 135.2 518.089 137C519.422 138.8 521.089 139.7 523.089 139.7Z" fill="white"/>
<defs>
<linearGradient id="paint0_linear_2_9" x1="-1.2826e-06" y1="101" x2="572" y2="110" gradientUnits="userSpaceOnUse">
<stop stop-color="#5470FE"/>
<stop offset="1" stop-color="#F866C6"/>
</linearGradient>
<linearGradient id="paint1_linear_2_9" x1="288" y1="0" x2="288" y2="215" gradientUnits="userSpaceOnUse">
<stop stop-color="#5470FE"/>
<stop offset="1" stop-color="#F767C7"/>
</linearGradient>
</defs>
</svg>
